<svg width="55.324" height="61.28" viewBox="0 0 55.324 61.28" xmlns="http://www.w3.org/2000/svg"><g id="svgGroup" stroke-linecap="round" fill-rule="evenodd" font-size="9pt" stroke="#D24D15" stroke-width="0.25mm" fill="none" style="stroke:#D24D15;stroke-width:0.25mm;fill:#D24D15"><path d="M 2.735 57.178 L 5.714 57.178 L 24.415 21.436 L 14.747 4.15 L 9.229 4.15 A 5.358 5.358 0 0 1 8.24 4.067 Q 6.594 3.757 6.5 2.282 A 2.876 2.876 0 0 1 6.495 2.1 A 2.27 2.27 0 0 1 6.677 1.157 Q 7.116 0.184 8.621 0.029 A 5.951 5.951 0 0 1 9.229 0 L 17.432 0 L 49.61 57.178 L 52.589 57.178 A 5.358 5.358 0 0 1 53.578 57.261 Q 55.224 57.572 55.317 59.046 A 2.876 2.876 0 0 1 55.323 59.229 A 2.154 2.154 0 0 1 55.13 60.173 Q 54.691 61.083 53.254 61.245 A 5.981 5.981 0 0 1 52.589 61.279 L 40.577 61.279 A 5.358 5.358 0 0 1 39.587 61.196 Q 37.942 60.886 37.848 59.411 A 2.876 2.876 0 0 1 37.842 59.229 A 2.154 2.154 0 0 1 38.035 58.284 Q 38.474 57.374 39.911 57.213 A 5.981 5.981 0 0 1 40.577 57.178 L 44.63 57.178 L 26.856 25.732 L 10.45 57.178 L 14.649 57.178 A 5.566 5.566 0 0 1 15.648 57.259 Q 17.432 57.586 17.432 59.229 Q 17.432 60.994 15.369 61.24 A 6.112 6.112 0 0 1 14.649 61.279 L 2.735 61.279 A 5.358 5.358 0 0 1 1.746 61.196 Q 0.1 60.886 0.006 59.411 A 2.876 2.876 0 0 1 0.001 59.229 A 2.154 2.154 0 0 1 0.194 58.284 Q 0.632 57.374 2.069 57.213 A 5.981 5.981 0 0 1 2.735 57.178 Z" vector-effect="non-scaling-stroke"/></g></svg>