<?xml version="1.0" standalone="no"?>
<!DOCTYPE svg PUBLIC "-//W3C//DTD SVG 20010904//EN"
 "http://www.w3.org/TR/2001/REC-SVG-20010904/DTD/svg10.dtd">
<svg version="1.0" xmlns="http://www.w3.org/2000/svg"
 width="976.000000pt" height="976.000000pt" viewBox="0 0 976.000000 976.000000"
 preserveAspectRatio="xMidYMid meet">
<metadata>
Created by potrace 1.14, written by Peter Selinger 2001-2017
</metadata>
<g transform="translate(0.000000,976.000000) scale(0.100000,-0.100000)"
fill="#000000" stroke="none">
<path d="M1754 9741 c-34 -9 -69 -23 -79 -31 -10 -8 -20 -14 -22 -12 -2 2 -22
-12 -44 -30 -61 -51 -94 -126 -96 -224 -3 -122 26 -197 99 -257 46 -38 151
-83 168 -72 5 3 10 2 10 -4 0 -12 -52 -11 531 -14 504 -2 529 -4 529 -39 0 -5
27 -56 60 -115 33 -58 60 -109 60 -114 0 -5 4 -9 8 -9 5 0 15 -16 22 -35 8
-20 20 -41 27 -47 7 -5 10 -14 7 -19 -3 -5 -1 -9 4 -9 5 0 12 -8 15 -17 3 -10
20 -43 38 -73 17 -30 47 -84 67 -120 19 -36 44 -77 54 -92 11 -16 16 -28 12
-28 -4 0 0 -8 8 -17 8 -10 29 -43 45 -73 16 -30 62 -112 101 -182 40 -71 72
-132 72 -138 0 -5 5 -10 10 -10 6 0 10 -6 10 -14 0 -7 9 -25 21 -40 11 -14 18
-26 14 -26 -4 0 1 -7 9 -16 9 -8 16 -22 16 -30 0 -8 3 -14 8 -14 4 0 16 -20
27 -45 11 -25 23 -45 28 -45 4 0 6 -4 2 -9 -3 -5 0 -13 5 -16 6 -4 15 -17 21
-28 5 -12 13 -29 18 -37 6 -8 36 -62 68 -120 32 -57 63 -114 70 -125 16 -27
35 -69 33 -74 -1 -2 2 -7 7 -10 10 -7 40 -57 83 -136 15 -27 37 -68 49 -90 13
-22 33 -58 44 -80 12 -22 24 -42 27 -45 3 -3 11 -16 17 -30 7 -14 27 -50 44
-80 17 -30 44 -77 59 -105 15 -27 44 -78 63 -112 20 -35 33 -63 30 -63 -4 0 2
-7 13 -15 10 -8 15 -15 11 -15 -5 0 0 -12 11 -27 32 -47 92 -162 92 -177 0 -8
-3 -16 -7 -18 -5 -1 -23 -32 -41 -68 -19 -36 -72 -139 -120 -230 -47 -91 -99
-190 -114 -220 -16 -30 -51 -97 -78 -147 -27 -51 -46 -93 -42 -93 4 0 2 -4 -4
-8 -11 -7 -44 -65 -45 -79 0 -5 -5 -13 -10 -20 -6 -6 -32 -54 -58 -105 -27
-51 -74 -142 -106 -203 -32 -60 -71 -137 -88 -170 -17 -33 -34 -61 -39 -63 -4
-2 -8 -9 -8 -15 0 -7 -6 -23 -13 -37 -15 -28 -133 -251 -184 -349 -18 -35 -38
-70 -44 -78 -6 -7 -8 -13 -4 -13 5 0 1 -8 -7 -17 -8 -10 -21 -34 -28 -53 -8
-19 -17 -37 -20 -40 -3 -3 -26 -43 -50 -90 -77 -150 -122 -235 -132 -247 -6
-7 -7 -13 -2 -13 5 0 5 -4 -1 -8 -5 -4 -25 -36 -43 -72 -112 -219 -157 -306
-162 -310 -3 -3 -27 -48 -53 -100 -26 -52 -81 -158 -121 -235 -41 -77 -111
-212 -156 -300 -46 -88 -87 -161 -91 -163 -5 -2 -9 -11 -9 -21 0 -9 -4 -21 -9
-27 -4 -5 -41 -72 -81 -149 -40 -77 -77 -146 -83 -152 -5 -7 -6 -13 -1 -13 5
0 4 -4 -1 -8 -6 -4 -19 -26 -29 -49 -11 -24 -23 -43 -28 -43 -4 0 -8 -6 -8
-12 0 -7 -6 -24 -13 -38 -8 -14 -36 -68 -64 -120 -28 -52 -75 -141 -104 -198
-30 -56 -66 -126 -81 -155 -16 -28 -28 -57 -28 -64 0 -7 -4 -13 -9 -13 -5 0
-13 -10 -16 -22 -4 -11 -20 -43 -36 -70 -16 -26 -25 -48 -21 -48 4 0 3 -4 -3
-8 -5 -4 -28 -43 -51 -87 -44 -87 -149 -288 -224 -430 -26 -49 -69 -132 -95
-183 -26 -51 -51 -95 -56 -98 -5 -3 -7 -10 -4 -15 4 -5 1 -9 -4 -9 -6 0 -10
-3 -9 -7 4 -14 -32 -73 -45 -74 -73 -5 -129 -4 -133 3 -3 5 -10 5 -17 1 -15
-9 -218 -10 -224 0 -2 4 -9 4 -15 1 -6 -4 -52 -8 -102 -10 -84 -4 -151 -10
-151 -14 0 -1 -9 -3 -20 -5 -93 -18 -190 -101 -219 -188 -25 -74 -19 -212 12
-273 39 -77 125 -137 232 -163 33 -8 2217 -7 2250 0 118 28 197 84 238 168 24
49 27 67 26 151 -1 107 -14 148 -69 208 -37 42 -120 88 -174 97 -19 3 -39 9
-45 12 -5 4 -89 8 -186 9 -96 1 -177 3 -180 4 -3 1 -9 1 -15 0 -42 -9 -55 -9
-60 0 -4 6 -11 7 -17 3 -16 -9 -219 -10 -225 0 -2 4 -12 3 -21 -1 -14 -7 -43
-8 -98 -3 -10 1 9 43 108 231 25 47 74 141 109 210 35 69 66 127 69 130 3 3
26 46 51 95 139 273 223 430 230 433 5 2 6 8 3 13 -3 6 1 18 9 27 8 9 33 53
55 97 64 130 127 250 132 255 3 3 22 39 43 80 20 41 72 143 116 225 43 83 111
213 151 290 40 77 94 181 120 230 26 50 79 153 119 230 40 77 77 145 82 151 5
6 6 14 2 17 -3 4 -2 7 3 7 6 0 18 20 28 45 11 25 23 45 28 45 4 0 8 8 8 18 0
10 4 22 9 27 8 10 104 191 177 335 20 41 41 77 44 80 4 3 11 16 15 30 4 14 14
33 23 43 8 9 12 17 7 17 -4 0 -3 6 3 13 10 13 56 99 167 312 37 72 71 136 77
143 6 6 8 12 4 12 -3 0 5 18 19 40 14 22 25 44 25 50 0 5 5 10 12 10 6 0 8 3
5 7 -4 3 2 20 12 37 10 17 48 87 84 156 136 263 201 389 259 500 113 215 181
345 183 348 4 4 315 -546 315 -558 0 -5 5 -10 10 -10 6 0 10 -4 10 -9 0 -5 37
-73 82 -152 44 -79 92 -164 106 -189 14 -25 60 -106 102 -180 43 -74 94 -166
115 -205 21 -38 43 -77 50 -85 6 -8 22 -35 35 -60 33 -66 115 -212 140 -250 6
-8 13 -22 17 -30 3 -8 48 -87 99 -176 50 -88 102 -180 114 -205 13 -24 25 -46
29 -49 3 -3 15 -23 27 -45 24 -46 137 -248 160 -285 8 -14 18 -33 21 -42 3
-10 8 -18 12 -18 4 0 13 -16 21 -35 8 -19 18 -35 22 -35 5 0 7 -4 3 -9 -3 -5
-1 -12 5 -16 6 -4 22 -30 36 -58 15 -29 33 -60 42 -69 8 -10 11 -18 7 -18 -4
0 -1 -8 7 -17 14 -17 42 -66 111 -193 16 -30 33 -59 37 -65 4 -5 19 -30 32
-55 14 -25 35 -63 48 -85 12 -22 38 -69 58 -105 19 -36 41 -72 48 -81 8 -8 14
-18 14 -21 0 -3 28 -54 61 -114 34 -60 71 -127 83 -149 11 -22 24 -42 29 -43
4 -2 7 -7 7 -12 0 -4 40 -78 90 -165 49 -86 95 -170 102 -186 7 -16 16 -29 20
-29 5 0 8 -5 8 -10 0 -6 11 -27 23 -48 25 -38 92 -159 111 -199 6 -13 14 -23
19 -23 4 0 7 -4 7 -10 0 -5 48 -94 107 -197 147 -260 172 -304 186 -333 6 -14
18 -31 25 -39 7 -7 11 -16 8 -19 -9 -8 -167 -8 -172 0 -3 5 -10 5 -16 2 -16
-10 -219 -11 -225 -1 -2 4 -9 4 -15 1 -6 -4 -85 -8 -177 -10 -91 -2 -173 -5
-181 -7 -107 -27 -166 -56 -212 -104 -91 -95 -100 -298 -19 -411 29 -42 95
-83 170 -108 l66 -22 1075 -1 c1056 -1 1220 3 1220 31 0 4 8 8 18 8 20 0 102
54 115 76 4 7 13 19 20 26 42 41 62 220 34 298 -14 42 -42 86 -71 116 -24 24
-106 67 -151 79 -16 5 -37 10 -45 12 -8 2 -85 6 -170 8 -85 2 -157 4 -160 5
-3 2 -9 1 -15 0 -26 -6 -217 -4 -222 3 -2 4 -12 3 -21 -2 -21 -11 -52 4 -52
24 0 8 -4 15 -10 15 -5 0 -10 4 -10 9 0 5 -20 44 -45 85 -25 42 -45 81 -45 86
0 5 -6 15 -13 22 -7 7 -18 24 -24 38 -7 14 -27 50 -44 80 -32 57 -72 129 -105
190 -11 19 -22 37 -25 40 -3 3 -27 46 -54 95 -26 50 -51 95 -55 100 -8 10 -54
94 -94 170 -12 22 -23 42 -26 45 -3 3 -11 16 -18 29 -14 24 -22 38 -82 146
-19 33 -51 89 -71 125 -20 36 -51 91 -68 123 -18 32 -41 72 -51 90 -11 17 -25
44 -31 60 -6 15 -15 27 -20 27 -5 0 -9 9 -9 20 0 11 -3 20 -7 20 -5 0 -24 31
-43 68 -19 37 -38 69 -42 70 -5 2 -8 7 -8 12 0 5 -21 46 -48 92 -26 46 -54 97
-62 113 -8 17 -18 32 -21 35 -3 3 -25 41 -48 85 -24 44 -47 85 -51 90 -4 6
-21 35 -37 65 -17 30 -40 73 -53 95 -13 22 -34 60 -48 85 -13 25 -32 59 -42
75 -10 17 -30 53 -45 80 -16 28 -48 86 -73 130 -49 88 -51 93 -177 315 -48 85
-96 171 -107 190 -11 19 -33 58 -49 85 -16 28 -38 68 -49 90 -12 22 -34 63
-51 90 -16 28 -37 66 -47 85 -9 19 -19 37 -22 40 -3 3 -10 14 -16 25 -36 66
-80 144 -105 187 -16 27 -29 51 -29 54 0 2 -10 21 -23 42 -13 20 -40 66 -59
102 -20 36 -81 145 -137 243 -56 99 -101 183 -101 188 0 5 -4 9 -10 9 -5 0
-10 4 -10 9 0 8 -108 205 -167 306 -13 22 -31 56 -41 75 -9 19 -19 37 -22 40
-4 4 -24 39 -54 95 -6 11 -17 28 -25 38 -8 9 -10 17 -5 17 5 0 4 4 -2 8 -5 4
-26 36 -46 72 -74 134 -92 166 -109 195 -10 17 -27 47 -36 68 -10 20 -21 37
-25 37 -5 0 -8 5 -8 11 0 6 -22 49 -50 96 -27 47 -50 86 -50 88 0 2 -15 30
-34 62 -43 74 -83 147 -110 198 -12 22 -24 42 -28 43 -5 2 -8 7 -8 11 0 4 -63
120 -141 257 -77 137 -155 276 -174 309 -18 33 -67 120 -109 194 -42 73 -76
138 -76 142 0 5 -4 9 -10 9 -5 0 -10 6 -10 14 0 7 -11 30 -25 50 -13 20 -22
36 -19 36 3 0 -3 12 -14 28 -10 15 -48 79 -83 142 -35 63 -68 122 -74 132 -18
29 -42 72 -69 123 -15 28 -36 66 -47 85 -12 19 -54 94 -94 165 -80 142 -106
189 -142 250 -12 22 -26 47 -29 55 -4 8 -16 27 -26 42 -10 14 -18 33 -18 41 0
9 -4 17 -8 19 -5 2 -28 39 -53 83 -24 44 -49 89 -56 100 -7 11 -15 27 -20 35
-4 8 -19 36 -34 61 -15 26 -42 73 -60 105 -18 33 -41 75 -52 94 -58 106 -168
300 -186 330 -11 19 -24 42 -28 50 -4 8 -29 52 -55 98 -26 46 -48 88 -48 93 0
6 -283 9 -727 8 -641 -1 -735 -3 -789 -18z"/>
</g>
</svg>
