<?xml version="1.0" standalone="no"?>
<!DOCTYPE svg PUBLIC "-//W3C//DTD SVG 20010904//EN"
 "http://www.w3.org/TR/2001/REC-SVG-20010904/DTD/svg10.dtd">
<svg version="1.0" xmlns="http://www.w3.org/2000/svg"
 width="1409.000000pt" height="1409.000000pt" viewBox="0 0 1409.000000 1409.000000"
 preserveAspectRatio="xMidYMid meet">
<metadata>
Created by potrace 1.14, written by Peter Selinger 2001-2017
</metadata>
<g transform="translate(0.000000,1409.000000) scale(0.100000,-0.100000)"
fill="#000000" stroke="none">
<path d="M11115 11414 c-60 -13 -130 -28 -155 -33 -25 -5 -97 -23 -160 -40
-63 -18 -135 -37 -160 -43 -81 -19 -458 -201 -735 -355 -33 -18 -73 -40 -90
-48 -16 -9 -64 -38 -105 -65 -41 -28 -82 -53 -90 -57 -8 -4 -26 -14 -40 -23
-14 -9 -45 -30 -70 -46 -25 -16 -46 -32 -48 -36 -2 -5 -10 -8 -18 -8 -8 0 -14
-4 -14 -10 0 -5 -4 -10 -9 -10 -6 0 -22 -11 -37 -25 -15 -14 -30 -25 -34 -25
-14 0 -123 -105 -213 -205 l-90 -100 -156 -1 c-87 -1 -175 -7 -197 -13 -21 -6
-62 -11 -89 -11 -28 0 -66 -5 -85 -10 -19 -6 -60 -13 -90 -16 -30 -4 -63 -10
-72 -15 -9 -5 -28 -9 -42 -9 -14 0 -26 -4 -26 -8 0 -7 -19 -12 -62 -15 -10 -1
-18 -5 -18 -10 0 -5 -6 -7 -12 -4 -7 2 -32 -4 -55 -14 -23 -10 -59 -20 -80
-23 -21 -3 -69 -13 -108 -21 -38 -9 -79 -17 -90 -19 -11 -2 -20 -5 -20 -6 0
-1 -11 -4 -25 -6 -14 -1 -56 -8 -95 -14 -38 -6 -92 -13 -120 -15 -27 -2 -68
-6 -90 -9 -22 -3 -106 -6 -188 -7 -104 -2 -155 -6 -175 -16 -22 -12 -79 -13
-307 -10 -155 3 -292 9 -306 15 -14 6 -86 18 -160 27 -74 8 -141 18 -149 20
-14 4 -111 12 -255 20 -33 2 -261 4 -507 5 l-448 1 -112 -55 c-62 -29 -124
-57 -138 -61 -43 -12 -133 -66 -180 -107 -104 -92 -127 -115 -148 -149 -12
-20 -29 -42 -37 -49 -17 -14 -19 -12 -192 177 -50 55 -124 125 -165 156 -69
53 -209 129 -290 158 -21 7 -38 16 -38 19 0 4 -6 7 -12 7 -11 0 -181 53 -228
70 -8 3 -23 8 -32 9 -9 2 -66 22 -125 45 -59 22 -142 52 -183 65 -41 13 -84
28 -95 33 -27 13 -96 34 -120 37 -11 2 -58 15 -105 29 -47 14 -92 28 -100 31
-8 2 -40 11 -70 20 -30 8 -68 18 -85 20 -16 3 -37 8 -45 11 -23 9 -121 23
-161 23 -20 0 -48 4 -63 10 -39 14 -43 -8 -15 -78 13 -31 23 -60 21 -64 -1 -5
2 -8 8 -8 6 0 9 -3 8 -7 0 -5 1 -15 5 -23 8 -22 49 -149 51 -163 5 -21 18 -69
42 -157 13 -47 33 -132 45 -190 12 -58 25 -123 31 -145 5 -22 11 -49 13 -60 2
-11 4 -21 5 -22 2 -2 3 -6 4 -10 10 -38 33 -115 58 -198 17 -55 31 -104 32
-110 1 -5 5 -15 9 -22 4 -7 14 -31 22 -54 28 -77 155 -266 224 -332 83 -78
139 -127 145 -127 3 0 32 -18 66 -39 33 -21 80 -47 105 -58 25 -10 45 -21 45
-25 0 -5 9 -8 20 -8 11 0 28 -4 38 -9 9 -5 51 -21 92 -34 130 -43 264 -89 295
-102 69 -28 101 -40 110 -40 15 -1 69 -17 79 -23 6 -3 19 -6 30 -7 12 -1 59
-7 106 -13 47 -6 112 -13 145 -17 33 -3 67 -8 75 -10 8 -2 32 -6 53 -9 46 -7
80 -24 72 -36 -3 -4 -1 -10 3 -12 5 -1 23 -30 42 -62 28 -51 76 -112 145 -187
8 -9 15 -21 15 -27 0 -6 6 -15 13 -19 7 -4 28 -28 47 -53 19 -25 40 -52 47
-60 48 -59 123 -167 123 -177 0 -6 3 -13 8 -15 10 -4 44 -56 67 -103 11 -22
22 -42 25 -45 25 -23 73 -97 98 -150 41 -84 97 -178 114 -190 11 -8 68 -172
63 -181 -3 -4 -1 -9 3 -11 13 -5 63 -138 56 -150 -4 -6 -2 -13 4 -17 5 -3 12
-24 15 -46 4 -22 16 -76 28 -120 11 -44 22 -87 24 -95 2 -8 4 -17 5 -20 1 -3
2 -8 1 -12 0 -5 3 -8 8 -8 6 0 10 -15 10 -32 0 -42 11 -100 22 -113 4 -6 6
-20 5 -30 -2 -11 0 -24 4 -30 4 -5 8 -17 8 -25 1 -8 4 -27 7 -42 12 -63 15
-87 21 -178 3 -52 8 -102 12 -110 8 -19 9 -34 22 -225 15 -207 16 -450 3 -467
-6 -7 -13 -38 -17 -68 -9 -80 -17 -120 -26 -146 -6 -15 -5 -26 1 -30 7 -4 8
-30 3 -73 -13 -118 -7 -389 11 -486 23 -129 28 -141 57 -151 18 -5 18 -7 3
-18 -15 -11 -14 -14 7 -41 73 -95 194 -221 254 -265 51 -38 199 -117 264 -140
19 -6 44 -16 55 -21 28 -12 161 -46 210 -53 22 -4 67 -11 100 -16 33 -5 78
-12 100 -15 22 -3 55 -8 73 -11 58 -9 515 -6 562 5 25 5 61 12 80 15 169 26
528 126 702 195 148 60 326 179 447 299 51 51 101 92 110 91 30 -3 32 1 15 27
-16 24 -16 27 4 68 47 93 84 195 98 267 26 139 22 425 -6 453 -6 6 -10 22 -10
36 0 14 -9 42 -19 62 -11 19 -17 39 -14 42 4 3 1 6 -6 6 -7 0 -10 4 -7 9 4 5
2 11 -4 13 -5 1 -11 16 -12 31 -1 16 -10 33 -20 38 -11 6 -18 21 -18 38 0 16
-7 31 -15 35 -8 3 -15 15 -15 26 0 11 -7 23 -15 26 -8 4 -13 9 -10 14 2 4 -4
16 -14 27 -10 11 -22 29 -25 41 -4 12 -11 22 -16 22 -12 0 -41 56 -33 63 3 4
-2 9 -11 13 -9 3 -16 14 -16 24 0 11 -4 21 -9 24 -5 3 -12 23 -16 43 -4 21
-11 41 -16 44 -6 3 -11 16 -12 27 -1 12 -5 22 -10 22 -4 0 -7 6 -6 13 2 6 -3
32 -10 56 -7 24 -13 52 -14 62 -1 11 -4 19 -7 19 -6 0 -33 64 -36 85 -1 6 -3
13 -4 18 -1 4 -3 10 -5 15 -1 4 -5 14 -8 22 -11 26 -24 95 -21 113 1 9 -2 17
-8 17 -6 0 -8 9 -5 20 3 11 1 23 -4 26 -6 3 -9 13 -8 22 1 10 -2 26 -7 37 -11
24 -12 483 -2 539 4 21 11 43 16 50 5 6 9 26 10 45 2 19 6 39 9 45 4 6 9 19
10 29 5 28 112 220 134 239 10 9 19 21 19 27 0 6 9 16 20 23 11 7 20 18 20 24
0 6 11 23 25 38 13 14 24 27 22 29 -1 1 19 34 44 72 26 39 49 81 53 95 3 14
18 39 33 57 16 18 44 54 63 80 19 26 54 68 77 93 23 25 68 74 100 109 97 107
309 291 334 291 5 0 9 6 9 13 0 7 24 38 53 69 52 55 121 133 144 161 7 9 19
19 26 24 7 4 28 28 47 53 19 25 42 54 52 65 9 11 45 54 78 95 66 80 100 111
112 104 4 -3 8 -1 8 4 0 5 12 12 28 14 38 7 56 12 62 18 3 3 55 30 115 60 61
30 112 57 115 61 3 3 23 16 45 28 22 12 69 44 105 71 36 26 68 49 72 49 4 1
18 11 31 24 13 12 43 38 66 57 23 19 48 46 56 60 8 14 32 44 54 67 22 23 43
49 48 57 4 8 28 36 53 63 25 26 72 84 105 128 33 44 64 83 70 87 5 4 6 8 2 8
-7 0 40 89 53 100 3 3 12 20 19 38 8 17 17 32 22 32 5 0 8 3 8 8 -1 4 0 10 1
15 1 4 3 10 4 15 4 20 29 72 36 72 3 0 7 6 7 13 1 6 18 55 38 107 46 117 104
305 95 305 -4 0 80 158 91 171 6 7 12 30 15 51 5 42 48 121 70 130 8 3 14 11
14 19 0 7 8 19 18 26 11 7 24 23 30 35 7 12 18 28 24 35 20 21 35 47 69 116
17 34 35 62 40 62 5 0 9 7 9 16 0 24 39 155 56 186 8 14 14 29 14 32 0 11 -76
3 -185 -20z"/>
</g>
</svg>
